<?xml version="1.0" standalone="no"?>
<!DOCTYPE svg PUBLIC "-//W3C//DTD SVG 20010904//EN"
 "http://www.w3.org/TR/2001/REC-SVG-20010904/DTD/svg10.dtd">
<svg version="1.0" xmlns="http://www.w3.org/2000/svg"
 width="192.000000pt" height="192.000000pt" viewBox="0 0 192.000000 192.000000"
 preserveAspectRatio="xMidYMid meet">

<g transform="translate(0.000000,192.000000) scale(0.100000,-0.100000)"
fill="#000000" stroke="none">
<path d="M813 1466 c-10 -17 -46 -36 -68 -36 -28 0 -126 -71 -156 -113 -16
-22 -29 -53 -29 -68 0 -45 34 -125 115 -268 143 -251 288 -462 336 -486 33
-18 86 -19 126 -4 38 14 120 95 145 143 41 79 26 127 -153 491 -130 265 -142
284 -217 323 -67 35 -87 39 -99 18z m-39 -61 c-4 -8 -8 -15 -10 -15 -2 0 -4 7
-4 15 0 8 4 15 10 15 5 0 7 -7 4 -15z m180 -12 c-4 -16 -12 -37 -18 -48 -10
-19 -11 -19 -14 4 -5 35 6 71 23 71 12 0 14 -7 9 -27z m36 -31 c0 -10 -7 -28
-16 -40 -18 -26 -8 -29 17 -6 17 15 19 14 38 -17 11 -18 71 -139 133 -268 101
-214 112 -242 116 -301 2 -53 -1 -71 -18 -99 l-22 -34 -33 81 c-37 92 -94 199
-202 382 -85 146 -91 153 -121 169 l-23 12 27 32 c15 18 32 32 38 32 6 0 20
19 31 41 20 41 35 48 35 16z m-349 -140 c-7 -2 -18 1 -23 6 -8 8 -4 9 13 5 13
-4 18 -8 10 -11z m-18 -7 c44 -18 140 -19 202 -3 32 9 51 9 62 2 43 -27 311
-524 320 -593 4 -32 0 -43 -27 -74 -21 -24 -41 -37 -57 -37 -35 0 -86 33 -127
83 -19 23 -37 39 -41 35 -10 -10 55 -77 104 -106 l46 -27 -34 -3 c-61 -6 -102
41 -273 313 -109 173 -236 425 -215 425 3 0 21 -7 40 -15z"/>
<path d="M790 960 c0 -5 5 -10 11 -10 5 0 7 5 4 10 -3 6 -8 10 -11 10 -2 0 -4
-4 -4 -10z"/>
</g>
</svg>
